<svg width="50" height="50" viewBox="0 0 50 50" fill="none" xmlns="http://www.w3.org/2000/svg">
<rect width="50" height="50" rx="10" fill="#0300AD"/>
<path d="M26.51 20.585H28.7463C29.0563 20.5852 29.3615 20.6623 29.6344 20.8094C29.9074 20.9565 30.1396 21.169 30.3103 21.4279C30.4809 21.6868 30.5847 21.9839 30.6124 22.2927C30.6401 22.6016 30.5907 22.9124 30.4688 23.1975L25.5188 34.7513C25.3993 35.0279 25.1881 35.2549 24.9209 35.3942C24.6536 35.5334 24.3465 35.5764 24.0513 35.5158C23.7561 35.4552 23.4908 35.2947 23.3 35.0615C23.1092 34.8282 23.0046 34.5364 23.0038 34.235V25.585L21.1875 25.5288C20.7011 25.5125 20.2401 25.3078 19.9019 24.958C19.5637 24.6081 19.3747 24.1404 19.375 23.6537V16.25C19.375 15.7527 19.5725 15.2758 19.9242 14.9242C20.2758 14.5725 20.7527 14.375 21.25 14.375H24.635C25.1323 14.375 25.6092 14.5725 25.9608 14.9242C26.3125 15.2758 26.51 15.7527 26.51 16.25V20.585Z" fill="white"/>
</svg>
